<svg width="639" height="752" viewBox="0 0 639 752" fill="none" xmlns="http://www.w3.org/2000/svg">
<g filter="url(#filter0_ddf_42_34)">
<path d="M131 376C131 311.935 182.935 260 247 260H513C577.065 260 629 311.935 629 376V626C629 690.065 577.065 742 513 742H131V376Z" fill="#100F15" fill-opacity="0.43" shape-rendering="crispEdges"/>
<path d="M247 260.5H513C576.789 260.5 628.5 312.211 628.5 376V626C628.5 689.789 576.789 741.5 513 741.5H131.5V376C131.5 312.211 183.211 260.5 247 260.5Z" stroke="url(#paint0_linear_42_34)" shape-rendering="crispEdges"/>
</g>
<rect x="198" y="516" width="56" height="191" stroke="url(#paint1_linear_42_34)" stroke-width="2"/>
<rect x="271" y="455" width="56" height="207" stroke="url(#paint2_linear_42_34)" stroke-width="2"/>
<rect x="344" y="375" width="56" height="228" stroke="url(#paint3_linear_42_34)" stroke-width="2"/>
<rect x="417" y="420" width="56" height="222" stroke="url(#paint4_linear_42_34)" stroke-width="2"/>
<rect x="490" y="350" width="56" height="193" stroke="url(#paint5_linear_42_34)" stroke-width="2"/>
<g filter="url(#filter1_f_42_34)">
<circle cx="116.5" cy="404.5" r="34.5" fill="#100F15"/>
<circle cx="116.5" cy="404.5" r="34" stroke="url(#paint6_linear_42_34)"/>
</g>
<path d="M178.679 480.521C177.31 480.698 176.344 481.951 176.521 483.321C176.698 484.69 177.951 485.656 179.321 485.479L178.679 480.521ZM387 323L384.946 324.424L387 323ZM455 361L457.395 361.718L455 361ZM535 293L507.246 285.059L514.246 313.065L535 293ZM179 483C179.321 485.479 179.322 485.479 179.324 485.479C179.325 485.479 179.327 485.479 179.329 485.478C179.332 485.478 179.336 485.477 179.342 485.477C179.352 485.475 179.366 485.473 179.384 485.471C179.419 485.466 179.468 485.459 179.531 485.45C179.656 485.431 179.837 485.404 180.069 485.365C180.535 485.289 181.21 485.169 182.077 484.992C183.813 484.638 186.318 484.057 189.451 483.142C195.717 481.312 204.501 478.142 214.667 472.773C235.014 462.028 260.856 442.492 283.112 407.337L278.888 404.663C257.144 439.008 231.986 457.972 212.333 468.352C202.499 473.545 194.033 476.595 188.049 478.343C185.057 479.216 182.687 479.764 181.079 480.092C180.274 480.256 179.661 480.365 179.255 480.432C179.052 480.466 178.901 480.489 178.805 480.503C178.756 480.51 178.721 480.515 178.7 480.518C178.69 480.519 178.683 480.52 178.679 480.521C178.678 480.521 178.677 480.521 178.677 480.521C178.677 480.521 178.677 480.521 178.677 480.521C178.678 480.521 178.679 480.521 179 483ZM283.112 407.337C305.16 372.512 324.99 342.684 342.466 326.193C351.23 317.923 359.011 313.394 365.848 312.868C372.395 312.364 378.763 315.507 384.946 324.424L389.054 321.576C382.237 311.743 374.355 307.198 365.465 307.882C356.864 308.544 348.02 314.077 339.034 322.557C321.01 339.566 300.84 369.988 278.888 404.663L283.112 407.337ZM384.946 324.424C396.418 340.972 410.618 360.793 423.56 371.402C429.942 376.634 436.685 380.192 442.991 379.075C449.573 377.909 454.317 371.976 457.395 361.718L452.605 360.282C449.683 370.024 445.808 373.498 442.118 374.152C438.151 374.855 432.967 372.648 426.73 367.536C414.435 357.457 400.635 338.279 389.054 321.576L384.946 324.424ZM457.395 361.718C468.614 324.322 495.039 307.933 514.052 300.796L512.294 296.115C492.342 303.605 464.412 320.926 452.605 360.282L457.395 361.718Z" fill="url(#paint7_linear_42_34)"/>
<g filter="url(#filter2_ddf_42_34)">
<path d="M10 183.5C10 87.6786 87.6786 10 183.5 10V10C279.321 10 357 87.6786 357 183.5V183.5C357 279.321 279.321 357 183.5 357V357C87.6786 357 10 279.321 10 183.5V183.5Z" fill="#100F15"/>
<path d="M183.5 356.5C87.9547 356.5 10.5 279.045 10.5 183.5C10.5 87.9547 87.9547 10.5 183.5 10.5C279.045 10.5 356.5 87.9547 356.5 183.5C356.5 279.045 279.045 356.5 183.5 356.5Z" stroke="url(#paint8_linear_42_34)"/>
</g>
<g filter="url(#filter3_f_42_34)">
<circle cx="446.5" cy="156.5" r="45.5" fill="#100F15"/>
<circle cx="446.5" cy="156.5" r="45" stroke="url(#paint9_linear_42_34)"/>
</g>
<g filter="url(#filter4_f_42_34)">
<circle cx="91.5" cy="611.5" r="20.5" fill="#100F15"/>
<circle cx="91.5" cy="611.5" r="20" stroke="url(#paint10_linear_42_34)"/>
</g>
<g filter="url(#filter5_f_42_34)">
<circle r="21" transform="matrix(1 0 0 -1 46 510)" fill="#100F15"/>
<circle r="20.5" transform="matrix(1 0 0 -1 46 510)" stroke="url(#paint11_linear_42_34)"/>
</g>
<circle cx="183" cy="183" r="99" fill="#100F15" stroke="url(#paint12_linear_42_34)" stroke-width="2"/>
<g filter="url(#filter6_d_42_34)">
<circle cx="183" cy="183" r="100" fill="#100F15"/>
<circle cx="183" cy="183" r="90" stroke="url(#paint13_linear_42_34)" stroke-width="20"/>
</g>
<g filter="url(#filter7_d_42_34)">
<path d="M93 183C93 133.294 133.294 93 183 93" stroke="url(#paint14_linear_42_34)" stroke-width="20" stroke-linecap="round"/>
</g>
<g filter="url(#filter8_d_42_34)">
<path d="M183 93C213.765 93 241.117 109.011 257.494 133" stroke="url(#paint15_linear_42_34)" stroke-width="20" stroke-linecap="round"/>
</g>
<path d="M157.403 197.358C156.33 197.341 155.256 197.136 154.182 196.744C153.108 196.352 152.128 195.692 151.241 194.763C150.355 193.825 149.643 192.56 149.107 190.966C148.57 189.364 148.301 187.352 148.301 184.932C148.301 182.614 148.518 180.56 148.953 178.77C149.388 176.972 150.018 175.459 150.845 174.232C151.672 172.996 152.669 172.058 153.837 171.419C155.013 170.78 156.338 170.46 157.812 170.46C159.278 170.46 160.582 170.754 161.724 171.342C162.875 171.922 163.813 172.732 164.537 173.771C165.261 174.811 165.73 176.009 165.943 177.364H162.824C162.534 176.187 161.972 175.212 161.136 174.436C160.301 173.661 159.193 173.273 157.812 173.273C155.784 173.273 154.186 174.155 153.018 175.919C151.859 177.683 151.276 180.159 151.267 183.347H151.472C151.949 182.622 152.516 182.004 153.172 181.493C153.837 180.973 154.57 180.572 155.371 180.291C156.172 180.01 157.02 179.869 157.915 179.869C159.415 179.869 160.787 180.244 162.031 180.994C163.276 181.736 164.273 182.763 165.023 184.075C165.773 185.379 166.148 186.875 166.148 188.562C166.148 190.182 165.786 191.665 165.061 193.011C164.337 194.349 163.318 195.415 162.006 196.207C160.702 196.991 159.168 197.375 157.403 197.358ZM157.403 194.545C158.477 194.545 159.44 194.277 160.293 193.74C161.153 193.203 161.831 192.483 162.325 191.58C162.828 190.676 163.08 189.67 163.08 188.562C163.08 187.48 162.837 186.496 162.351 185.609C161.874 184.714 161.213 184.003 160.369 183.474C159.534 182.946 158.58 182.682 157.506 182.682C156.696 182.682 155.942 182.844 155.243 183.168C154.544 183.483 153.93 183.918 153.402 184.472C152.882 185.026 152.473 185.661 152.175 186.376C151.876 187.084 151.727 187.83 151.727 188.614C151.727 189.653 151.97 190.625 152.456 191.528C152.95 192.432 153.624 193.161 154.476 193.714C155.337 194.268 156.312 194.545 157.403 194.545ZM179.715 197.358C177.789 197.358 176.148 196.834 174.793 195.786C173.438 194.729 172.402 193.199 171.686 191.196C170.971 189.185 170.613 186.756 170.613 183.909C170.613 181.08 170.971 178.663 171.686 176.661C172.411 174.649 173.451 173.115 174.806 172.058C176.169 170.993 177.806 170.46 179.715 170.46C181.624 170.46 183.256 170.993 184.611 172.058C185.975 173.115 187.015 174.649 187.73 176.661C188.455 178.663 188.817 181.08 188.817 183.909C188.817 186.756 188.459 189.185 187.743 191.196C187.027 193.199 185.992 194.729 184.637 195.786C183.282 196.834 181.641 197.358 179.715 197.358ZM179.715 194.545C181.624 194.545 183.107 193.625 184.164 191.784C185.221 189.943 185.749 187.318 185.749 183.909C185.749 181.642 185.506 179.712 185.02 178.118C184.543 176.524 183.853 175.31 182.949 174.474C182.054 173.639 180.976 173.222 179.715 173.222C177.823 173.222 176.344 174.155 175.279 176.021C174.213 177.879 173.681 180.509 173.681 183.909C173.681 186.176 173.919 188.102 174.397 189.688C174.874 191.273 175.56 192.479 176.455 193.305C177.358 194.132 178.445 194.545 179.715 194.545ZM207.022 192.091V190.71C207.022 189.756 207.218 188.882 207.61 188.089C208.01 187.288 208.59 186.649 209.348 186.172C210.115 185.686 211.044 185.443 212.135 185.443C213.243 185.443 214.172 185.686 214.922 186.172C215.672 186.649 216.239 187.288 216.623 188.089C217.006 188.882 217.198 189.756 217.198 190.71V192.091C217.198 193.045 217.002 193.923 216.61 194.724C216.226 195.517 215.655 196.156 214.897 196.642C214.147 197.119 213.226 197.358 212.135 197.358C211.027 197.358 210.094 197.119 209.336 196.642C208.577 196.156 208.002 195.517 207.61 194.724C207.218 193.923 207.022 193.045 207.022 192.091ZM209.63 190.71V192.091C209.63 192.884 209.817 193.595 210.192 194.226C210.567 194.848 211.215 195.159 212.135 195.159C213.03 195.159 213.661 194.848 214.027 194.226C214.402 193.595 214.59 192.884 214.59 192.091V190.71C214.59 189.918 214.411 189.21 214.053 188.588C213.695 187.957 213.056 187.642 212.135 187.642C211.24 187.642 210.597 187.957 210.205 188.588C209.821 189.21 209.63 189.918 209.63 190.71ZM193.982 177.108V175.727C193.982 174.773 194.178 173.899 194.57 173.107C194.971 172.305 195.55 171.666 196.309 171.189C197.076 170.703 198.005 170.46 199.096 170.46C200.203 170.46 201.132 170.703 201.882 171.189C202.632 171.666 203.199 172.305 203.583 173.107C203.966 173.899 204.158 174.773 204.158 175.727V177.108C204.158 178.062 203.962 178.94 203.57 179.741C203.186 180.534 202.615 181.173 201.857 181.659C201.107 182.136 200.186 182.375 199.096 182.375C197.988 182.375 197.054 182.136 196.296 181.659C195.537 181.173 194.962 180.534 194.57 179.741C194.178 178.94 193.982 178.062 193.982 177.108ZM196.59 175.727V177.108C196.59 177.901 196.777 178.612 197.152 179.243C197.527 179.865 198.175 180.176 199.096 180.176C199.99 180.176 200.621 179.865 200.988 179.243C201.363 178.612 201.55 177.901 201.55 177.108V175.727C201.55 174.935 201.371 174.227 201.013 173.605C200.655 172.974 200.016 172.659 199.096 172.659C198.201 172.659 197.557 172.974 197.165 173.605C196.782 174.227 196.59 174.935 196.59 175.727ZM194.953 197L212.953 170.818H215.868L197.868 197H194.953Z" fill="url(#paint16_linear_42_34)"/>
<defs>
<filter id="filter0_ddf_42_34" x="121" y="250" width="518" height="502" filterUnits="userSpaceOnUse" color-interpolation-filters="sRGB">
<feFlood flood-opacity="0" result="BackgroundImageFix"/>
<feColorMatrix in="SourceAlpha" type="matrix" values="0 0 0 0 0 0 0 0 0 0 0 0 0 0 0 0 0 0 127 0" result="hardAlpha"/>
<feOffset dx="2" dy="4"/>
<feGaussianBlur stdDeviation="2.5"/>
<feComposite in2="hardAlpha" operator="out"/>
<feColorMatrix type="matrix" values="0 0 0 0 0.239216 0 0 0 0 0.6 0 0 0 0 0.996078 0 0 0 1 0"/>
<feBlend mode="normal" in2="BackgroundImageFix" result="effect1_dropShadow_42_34"/>
<feColorMatrix in="SourceAlpha" type="matrix" values="0 0 0 0 0 0 0 0 0 0 0 0 0 0 0 0 0 0 127 0" result="hardAlpha"/>
<feOffset dx="2"/>
<feGaussianBlur stdDeviation="2"/>
<feComposite in2="hardAlpha" operator="out"/>
<feColorMatrix type="matrix" values="0 0 0 0 0.427451 0 0 0 0 0.941176 0 0 0 0 0.941176 0 0 0 1 0"/>
<feBlend mode="normal" in2="effect1_dropShadow_42_34" result="effect2_dropShadow_42_34"/>
<feBlend mode="normal" in="SourceGraphic" in2="effect2_dropShadow_42_34" result="shape"/>
<feGaussianBlur stdDeviation="5" result="effect3_foregroundBlur_42_34"/>
</filter>
<filter id="filter1_f_42_34" x="77" y="365" width="79" height="79" filterUnits="userSpaceOnUse" color-interpolation-filters="sRGB">
<feFlood flood-opacity="0" result="BackgroundImageFix"/>
<feBlend mode="normal" in="SourceGraphic" in2="BackgroundImageFix" result="shape"/>
<feGaussianBlur stdDeviation="2.5" result="effect1_foregroundBlur_42_34"/>
</filter>
<filter id="filter2_ddf_42_34" x="0" y="0" width="367" height="367" filterUnits="userSpaceOnUse" color-interpolation-filters="sRGB">
<feFlood flood-opacity="0" result="BackgroundImageFix"/>
<feColorMatrix in="SourceAlpha" type="matrix" values="0 0 0 0 0 0 0 0 0 0 0 0 0 0 0 0 0 0 127 0" result="hardAlpha"/>
<feOffset dx="2" dy="4"/>
<feGaussianBlur stdDeviation="2.5"/>
<feComposite in2="hardAlpha" operator="out"/>
<feColorMatrix type="matrix" values="0 0 0 0 0.239216 0 0 0 0 0.6 0 0 0 0 0.996078 0 0 0 1 0"/>
<feBlend mode="normal" in2="BackgroundImageFix" result="effect1_dropShadow_42_34"/>
<feColorMatrix in="SourceAlpha" type="matrix" values="0 0 0 0 0 0 0 0 0 0 0 0 0 0 0 0 0 0 127 0" result="hardAlpha"/>
<feOffset dx="2"/>
<feGaussianBlur stdDeviation="2"/>
<feComposite in2="hardAlpha" operator="out"/>
<feColorMatrix type="matrix" values="0 0 0 0 0.427451 0 0 0 0 0.941176 0 0 0 0 0.941176 0 0 0 1 0"/>
<feBlend mode="normal" in2="effect1_dropShadow_42_34" result="effect2_dropShadow_42_34"/>
<feBlend mode="normal" in="SourceGraphic" in2="effect2_dropShadow_42_34" result="shape"/>
<feGaussianBlur stdDeviation="5" result="effect3_foregroundBlur_42_34"/>
</filter>
<filter id="filter3_f_42_34" x="396" y="106" width="101" height="101" filterUnits="userSpaceOnUse" color-interpolation-filters="sRGB">
<feFlood flood-opacity="0" result="BackgroundImageFix"/>
<feBlend mode="normal" in="SourceGraphic" in2="BackgroundImageFix" result="shape"/>
<feGaussianBlur stdDeviation="2.5" result="effect1_foregroundBlur_42_34"/>
</filter>
<filter id="filter4_f_42_34" x="66" y="586" width="51" height="51" filterUnits="userSpaceOnUse" color-interpolation-filters="sRGB">
<feFlood flood-opacity="0" result="BackgroundImageFix"/>
<feBlend mode="normal" in="SourceGraphic" in2="BackgroundImageFix" result="shape"/>
<feGaussianBlur stdDeviation="2.5" result="effect1_foregroundBlur_42_34"/>
</filter>
<filter id="filter5_f_42_34" x="20" y="484" width="52" height="52" filterUnits="userSpaceOnUse" color-interpolation-filters="sRGB">
<feFlood flood-opacity="0" result="BackgroundImageFix"/>
<feBlend mode="normal" in="SourceGraphic" in2="BackgroundImageFix" result="shape"/>
<feGaussianBlur stdDeviation="2.5" result="effect1_foregroundBlur_42_34"/>
</filter>
<filter id="filter6_d_42_34" x="73" y="75" width="220" height="220" filterUnits="userSpaceOnUse" color-interpolation-filters="sRGB">
<feFlood flood-opacity="0" result="BackgroundImageFix"/>
<feColorMatrix in="SourceAlpha" type="matrix" values="0 0 0 0 0 0 0 0 0 0 0 0 0 0 0 0 0 0 127 0" result="hardAlpha"/>
<feOffset dy="2"/>
<feGaussianBlur stdDeviation="5"/>
<feComposite in2="hardAlpha" operator="out"/>
<feColorMatrix type="matrix" values="0 0 0 0 0.141176 0 0 0 0 0.486275 0 0 0 0 0.862745 0 0 0 1 0"/>
<feBlend mode="normal" in2="BackgroundImageFix" result="effect1_dropShadow_42_34"/>
<feBlend mode="normal" in="SourceGraphic" in2="effect1_dropShadow_42_34" result="shape"/>
</filter>
<filter id="filter7_d_42_34" x="79" y="83" width="118" height="118" filterUnits="userSpaceOnUse" color-interpolation-filters="sRGB">
<feFlood flood-opacity="0" result="BackgroundImageFix"/>
<feColorMatrix in="SourceAlpha" type="matrix" values="0 0 0 0 0 0 0 0 0 0 0 0 0 0 0 0 0 0 127 0" result="hardAlpha"/>
<feOffset dy="4"/>
<feGaussianBlur stdDeviation="2"/>
<feComposite in2="hardAlpha" operator="out"/>
<feColorMatrix type="matrix" values="0 0 0 0 0 0 0 0 0 0 0 0 0 0 0 0 0 0 0.25 0"/>
<feBlend mode="normal" in2="BackgroundImageFix" result="effect1_dropShadow_42_34"/>
<feBlend mode="normal" in="SourceGraphic" in2="effect1_dropShadow_42_34" result="shape"/>
</filter>
<filter id="filter8_d_42_34" x="169" y="83" width="102.495" height="68.001" filterUnits="userSpaceOnUse" color-interpolation-filters="sRGB">
<feFlood flood-opacity="0" result="BackgroundImageFix"/>
<feColorMatrix in="SourceAlpha" type="matrix" values="0 0 0 0 0 0 0 0 0 0 0 0 0 0 0 0 0 0 127 0" result="hardAlpha"/>
<feOffset dy="4"/>
<feGaussianBlur stdDeviation="2"/>
<feComposite in2="hardAlpha" operator="out"/>
<feColorMatrix type="matrix" values="0 0 0 0 0 0 0 0 0 0 0 0 0 0 0 0 0 0 0.25 0"/>
<feBlend mode="normal" in2="BackgroundImageFix" result="effect1_dropShadow_42_34"/>
<feBlend mode="normal" in="SourceGraphic" in2="effect1_dropShadow_42_34" result="shape"/>
</filter>
<linearGradient id="paint0_linear_42_34" x1="380" y1="260" x2="380" y2="742" gradientUnits="userSpaceOnUse">
<stop stop-color="#6DF0F0"/>
<stop offset="1" stop-color="#3D99FE"/>
</linearGradient>
<linearGradient id="paint1_linear_42_34" x1="226" y1="515" x2="226" y2="708" gradientUnits="userSpaceOnUse">
<stop stop-color="#6DF0F0"/>
<stop offset="1" stop-color="#3D99FE"/>
</linearGradient>
<linearGradient id="paint2_linear_42_34" x1="299" y1="454" x2="299" y2="663" gradientUnits="userSpaceOnUse">
<stop stop-color="#6DF0F0"/>
<stop offset="1" stop-color="#3D99FE"/>
</linearGradient>
<linearGradient id="paint3_linear_42_34" x1="372" y1="374" x2="372" y2="604" gradientUnits="userSpaceOnUse">
<stop stop-color="#6DF0F0"/>
<stop offset="1" stop-color="#3D99FE"/>
</linearGradient>
<linearGradient id="paint4_linear_42_34" x1="445" y1="419" x2="445" y2="643" gradientUnits="userSpaceOnUse">
<stop stop-color="#6DF0F0"/>
<stop offset="1" stop-color="#3D99FE"/>
</linearGradient>
<linearGradient id="paint5_linear_42_34" x1="518" y1="349" x2="518" y2="544" gradientUnits="userSpaceOnUse">
<stop stop-color="#6DF0F0"/>
<stop offset="1" stop-color="#3D99FE"/>
</linearGradient>
<linearGradient id="paint6_linear_42_34" x1="116.5" y1="370" x2="116.5" y2="439" gradientUnits="userSpaceOnUse">
<stop stop-color="#6DF0F0"/>
<stop offset="1" stop-color="#3D99FE"/>
</linearGradient>
<linearGradient id="paint7_linear_42_34" x1="388.75" y1="311" x2="388.75" y2="448.5" gradientUnits="userSpaceOnUse">
<stop stop-color="#6DF0F0"/>
<stop offset="1" stop-color="#3D99FE"/>
</linearGradient>
<linearGradient id="paint8_linear_42_34" x1="183.5" y1="10" x2="183.5" y2="357" gradientUnits="userSpaceOnUse">
<stop stop-color="#6DF0F0"/>
<stop offset="1" stop-color="#3D99FE"/>
</linearGradient>
<linearGradient id="paint9_linear_42_34" x1="446.5" y1="111" x2="446.5" y2="202" gradientUnits="userSpaceOnUse">
<stop stop-color="#6DF0F0"/>
<stop offset="1" stop-color="#3D99FE"/>
</linearGradient>
<linearGradient id="paint10_linear_42_34" x1="91.5" y1="591" x2="91.5" y2="632" gradientUnits="userSpaceOnUse">
<stop offset="0.0104167" stop-color="#6DF0F0"/>
<stop offset="1" stop-color="#3D99FE"/>
</linearGradient>
<linearGradient id="paint11_linear_42_34" x1="21" y1="0" x2="21" y2="42" gradientUnits="userSpaceOnUse">
<stop stop-color="#6DF0F0"/>
<stop offset="1" stop-color="#3D99FE"/>
</linearGradient>
<linearGradient id="paint12_linear_42_34" x1="183" y1="83" x2="183" y2="283" gradientUnits="userSpaceOnUse">
<stop stop-color="#F42A92"/>
<stop offset="1" stop-color="#247CDC"/>
</linearGradient>
<linearGradient id="paint13_linear_42_34" x1="296" y1="146.5" x2="183" y2="283" gradientUnits="userSpaceOnUse">
<stop stop-color="#6DF0F0"/>
<stop offset="1" stop-color="#3D99FE"/>
</linearGradient>
<linearGradient id="paint14_linear_42_34" x1="61" y1="166.5" x2="221.5" y2="43.5" gradientUnits="userSpaceOnUse">
<stop stop-color="#6DF0F0"/>
<stop offset="1" stop-color="#3D99FE"/>
</linearGradient>
<linearGradient id="paint15_linear_42_34" x1="232.95" y1="129.45" x2="125.4" y2="219.9" gradientUnits="userSpaceOnUse">
<stop stop-color="#D9F576"/>
<stop offset="1" stop-color="#247CDC"/>
</linearGradient>
<linearGradient id="paint16_linear_42_34" x1="146" y1="162" x2="183.5" y2="205" gradientUnits="userSpaceOnUse">
<stop stop-color="#6DF0F0"/>
<stop offset="1" stop-color="#3D99FE"/>
</linearGradient>
</defs>
</svg>
