<svg width="183" height="68" viewBox="0 0 183 68" fill="none" xmlns="http://www.w3.org/2000/svg">
<path d="M20.8125 35.0703C20.8125 34.4609 20.7188 33.9141 20.5312 33.4297C20.3594 32.9297 20.0312 32.4766 19.5469 32.0703C19.0625 31.6484 18.3828 31.2344 17.5078 30.8281C16.6328 30.4219 15.5 30 14.1094 29.5625C12.5625 29.0625 11.0938 28.5 9.70312 27.875C8.32812 27.25 7.10938 26.5234 6.04688 25.6953C5 24.8516 4.17188 23.875 3.5625 22.7656C2.96875 21.6562 2.67188 20.3672 2.67188 18.8984C2.67188 17.4766 2.98438 16.1875 3.60938 15.0312C4.23438 13.8594 5.10938 12.8594 6.23438 12.0312C7.35938 11.1875 8.6875 10.5391 10.2188 10.0859C11.7656 9.63281 13.4609 9.40625 15.3047 9.40625C17.8203 9.40625 20.0156 9.85937 21.8906 10.7656C23.7656 11.6719 25.2188 12.9141 26.25 14.4922C27.2969 16.0703 27.8203 17.875 27.8203 19.9062H20.8359C20.8359 18.9062 20.625 18.0312 20.2031 17.2812C19.7969 16.5156 19.1719 15.9141 18.3281 15.4766C17.5 15.0391 16.4531 14.8203 15.1875 14.8203C13.9688 14.8203 12.9531 15.0078 12.1406 15.3828C11.3281 15.7422 10.7188 16.2344 10.3125 16.8594C9.90625 17.4688 9.70312 18.1562 9.70312 18.9219C9.70312 19.5 9.84375 20.0234 10.125 20.4922C10.4219 20.9609 10.8594 21.3984 11.4375 21.8047C12.0156 22.2109 12.7266 22.5938 13.5703 22.9531C14.4141 23.3125 15.3906 23.6641 16.5 24.0078C18.3594 24.5703 19.9922 25.2031 21.3984 25.9062C22.8203 26.6094 24.0078 27.3984 24.9609 28.2734C25.9141 29.1484 26.6328 30.1406 27.1172 31.25C27.6016 32.3594 27.8438 33.6172 27.8438 35.0234C27.8438 36.5078 27.5547 37.8359 26.9766 39.0078C26.3984 40.1797 25.5625 41.1719 24.4688 41.9844C23.375 42.7969 22.0703 43.4141 20.5547 43.8359C19.0391 44.2578 17.3438 44.4688 15.4688 44.4688C13.7812 44.4688 12.1172 44.25 10.4766 43.8125C8.83594 43.3594 7.34375 42.6797 6 41.7734C4.67188 40.8672 3.60938 39.7109 2.8125 38.3047C2.01562 36.8984 1.61719 35.2344 1.61719 33.3125H8.67188C8.67188 34.375 8.83594 35.2734 9.16406 36.0078C9.49219 36.7422 9.95312 37.3359 10.5469 37.7891C11.1562 38.2422 11.875 38.5703 12.7031 38.7734C13.5469 38.9766 14.4688 39.0781 15.4688 39.0781C16.6875 39.0781 17.6875 38.9062 18.4688 38.5625C19.2656 38.2188 19.8516 37.7422 20.2266 37.1328C20.6172 36.5234 20.8125 35.8359 20.8125 35.0703ZM39.3281 18.6406V44H32.5547V18.6406H39.3281ZM32.1328 12.0312C32.1328 11.0469 32.4766 10.2344 33.1641 9.59375C33.8516 8.95313 34.7734 8.63281 35.9297 8.63281C37.0703 8.63281 37.9844 8.95313 38.6719 9.59375C39.375 10.2344 39.7266 11.0469 39.7266 12.0312C39.7266 13.0156 39.375 13.8281 38.6719 14.4688C37.9844 15.1094 37.0703 15.4297 35.9297 15.4297C34.7734 15.4297 33.8516 15.1094 33.1641 14.4688C32.4766 13.8281 32.1328 13.0156 32.1328 12.0312ZM60.9609 18.6406H67.0781V43.1562C67.0781 45.4688 66.5625 47.4297 65.5312 49.0391C64.5156 50.6641 63.0938 51.8906 61.2656 52.7188C59.4375 53.5625 57.3125 53.9844 54.8906 53.9844C53.8281 53.9844 52.7031 53.8438 51.5156 53.5625C50.3438 53.2812 49.2188 52.8438 48.1406 52.25C47.0781 51.6562 46.1875 50.9062 45.4688 50L48.4453 46.0156C49.2266 46.9219 50.1328 47.625 51.1641 48.125C52.1953 48.6406 53.3359 48.8984 54.5859 48.8984C55.8047 48.8984 56.8359 48.6719 57.6797 48.2188C58.5234 47.7812 59.1719 47.1328 59.625 46.2734C60.0781 45.4297 60.3047 44.4062 60.3047 43.2031V24.5L60.9609 18.6406ZM43.8984 31.625V31.1328C43.8984 29.1953 44.1328 27.4375 44.6016 25.8594C45.0859 24.2656 45.7656 22.8984 46.6406 21.7578C47.5312 20.6172 48.6094 19.7344 49.875 19.1094C51.1406 18.4844 52.5703 18.1719 54.1641 18.1719C55.8516 18.1719 57.2656 18.4844 58.4062 19.1094C59.5469 19.7344 60.4844 20.625 61.2188 21.7812C61.9531 22.9219 62.5234 24.2734 62.9297 25.8359C63.3516 27.3828 63.6797 29.0781 63.9141 30.9219V32C63.6797 33.7656 63.3281 35.4062 62.8594 36.9219C62.3906 38.4375 61.7734 39.7656 61.0078 40.9062C60.2422 42.0312 59.2891 42.9062 58.1484 43.5312C57.0234 44.1562 55.6797 44.4688 54.1172 44.4688C52.5547 44.4688 51.1406 44.1484 49.875 43.5078C48.625 42.8672 47.5547 41.9688 46.6641 40.8125C45.7734 39.6562 45.0859 38.2969 44.6016 36.7344C44.1328 35.1719 43.8984 33.4688 43.8984 31.625ZM50.6484 31.1328V31.625C50.6484 32.6719 50.75 33.6484 50.9531 34.5547C51.1562 35.4609 51.4688 36.2656 51.8906 36.9688C52.3281 37.6562 52.8672 38.1953 53.5078 38.5859C54.1641 38.9609 54.9375 39.1484 55.8281 39.1484C57.0625 39.1484 58.0703 38.8906 58.8516 38.375C59.6328 37.8438 60.2188 37.1172 60.6094 36.1953C61 35.2734 61.2266 34.2109 61.2891 33.0078V29.9375C61.2578 28.9531 61.125 28.0703 60.8906 27.2891C60.6562 26.4922 60.3281 25.8125 59.9062 25.25C59.4844 24.6875 58.9375 24.25 58.2656 23.9375C57.5938 23.625 56.7969 23.4688 55.875 23.4688C54.9844 23.4688 54.2109 23.6719 53.5547 24.0781C52.9141 24.4688 52.375 25.0078 51.9375 25.6953C51.5156 26.3828 51.1953 27.1953 50.9766 28.1328C50.7578 29.0547 50.6484 30.0547 50.6484 31.1328ZM78.9375 24.0547V44H72.1875V18.6406H78.5156L78.9375 24.0547ZM77.9531 30.4297H76.125C76.125 28.5547 76.3672 26.8672 76.8516 25.3672C77.3359 23.8516 78.0156 22.5625 78.8906 21.5C79.7656 20.4219 80.8047 19.6016 82.0078 19.0391C83.2266 18.4609 84.5859 18.1719 86.0859 18.1719C87.2734 18.1719 88.3594 18.3438 89.3438 18.6875C90.3281 19.0312 91.1719 19.5781 91.875 20.3281C92.5938 21.0781 93.1406 22.0703 93.5156 23.3047C93.9062 24.5391 94.1016 26.0469 94.1016 27.8281V44H87.3047V27.8047C87.3047 26.6797 87.1484 25.8047 86.8359 25.1797C86.5234 24.5547 86.0625 24.1172 85.4531 23.8672C84.8594 23.6016 84.125 23.4688 83.25 23.4688C82.3438 23.4688 81.5547 23.6484 80.8828 24.0078C80.2266 24.3672 79.6797 24.8672 79.2422 25.5078C78.8203 26.1328 78.5 26.8672 78.2812 27.7109C78.0625 28.5547 77.9531 29.4609 77.9531 30.4297ZM107.133 9.875V44H100.125V9.875H107.133ZM119.906 24.0547V44H113.156V18.6406H119.484L119.906 24.0547ZM118.922 30.4297H117.094C117.094 28.5547 117.336 26.8672 117.82 25.3672C118.305 23.8516 118.984 22.5625 119.859 21.5C120.734 20.4219 121.773 19.6016 122.977 19.0391C124.195 18.4609 125.555 18.1719 127.055 18.1719C128.242 18.1719 129.328 18.3438 130.312 18.6875C131.297 19.0312 132.141 19.5781 132.844 20.3281C133.562 21.0781 134.109 22.0703 134.484 23.3047C134.875 24.5391 135.07 26.0469 135.07 27.8281V44H128.273V27.8047C128.273 26.6797 128.117 25.8047 127.805 25.1797C127.492 24.5547 127.031 24.1172 126.422 23.8672C125.828 23.6016 125.094 23.4688 124.219 23.4688C123.312 23.4688 122.523 23.6484 121.852 24.0078C121.195 24.3672 120.648 24.8672 120.211 25.5078C119.789 26.1328 119.469 26.8672 119.25 27.7109C119.031 28.5547 118.922 29.4609 118.922 30.4297Z" fill="url(#paint0_linear_115_2)"/>
<rect y="51" width="40" height="6" rx="3" fill="#6DF0F0"/>
<defs>
<linearGradient id="paint0_linear_115_2" x1="54.2425" y1="-9.73758e-06" x2="119.075" y2="90.2735" gradientUnits="userSpaceOnUse">
<stop stop-color="#3D99FE"/>
<stop offset="1" stop-color="#6DF0F0"/>
</linearGradient>
</defs>
</svg>
