<svg width="151" height="30" viewBox="0 0 151 30" fill="none" xmlns="http://www.w3.org/2000/svg">
<path d="M3.932 20.54L0.26 23.132C0.812 24.308 1.58 25.4 2.564 26.408C3.548 27.416 4.7 28.22 6.02 28.82C7.364 29.396 8.804 29.684 10.34 29.684C11.492 29.684 12.584 29.504 13.616 29.144C14.672 28.808 15.62 28.316 16.46 27.668C17.3 26.996 17.96 26.18 18.44 25.22C18.92 24.26 19.16 23.168 19.16 21.944C19.16 20.864 18.98 19.916 18.62 19.1C18.284 18.26 17.804 17.54 17.18 16.94C16.58 16.316 15.896 15.788 15.128 15.356C14.384 14.924 13.604 14.564 12.788 14.276C11.516 13.844 10.46 13.424 9.62 13.016C8.78 12.584 8.156 12.14 7.748 11.684C7.34 11.204 7.136 10.652 7.136 10.028C7.136 9.404 7.388 8.864 7.892 8.408C8.396 7.928 9.152 7.688 10.16 7.688C10.928 7.688 11.612 7.844 12.212 8.156C12.812 8.444 13.34 8.84 13.796 9.344C14.276 9.824 14.684 10.364 15.02 10.964L19.052 8.732C18.62 7.844 18.008 6.992 17.216 6.176C16.448 5.336 15.476 4.652 14.3 4.124C13.148 3.572 11.768 3.296 10.16 3.296C8.6 3.296 7.184 3.584 5.912 4.16C4.664 4.712 3.668 5.516 2.924 6.572C2.204 7.604 1.844 8.84 1.844 10.28C1.844 11.48 2.072 12.512 2.528 13.376C2.984 14.216 3.56 14.936 4.256 15.536C4.952 16.112 5.684 16.592 6.452 16.976C7.244 17.336 7.94 17.624 8.54 17.84C9.668 18.272 10.616 18.68 11.384 19.064C12.176 19.424 12.764 19.844 13.148 20.324C13.556 20.804 13.76 21.44 13.76 22.232C13.76 23.144 13.436 23.864 12.788 24.392C12.14 24.92 11.3 25.184 10.268 25.184C9.38 25.184 8.552 24.992 7.784 24.608C7.016 24.224 6.308 23.684 5.66 22.988C5.036 22.292 4.46 21.476 3.932 20.54Z" fill="#D9F576"/>
<path d="M20.8011 12.44V15.86H30.1971V12.44H20.8011ZM23.5731 6.68V29H27.4251V6.68H23.5731ZM31.6185 20.72C31.6185 22.4 32.0025 23.9 32.7705 25.22C33.5625 26.516 34.6305 27.536 35.9745 28.28C37.3185 29 38.8425 29.36 40.5465 29.36C42.2505 29.36 43.7625 29 45.0825 28.28C46.4265 27.536 47.4945 26.516 48.2865 25.22C49.0785 23.9 49.4745 22.4 49.4745 20.72C49.4745 19.016 49.0785 17.516 48.2865 16.22C47.4945 14.924 46.4265 13.916 45.0825 13.196C43.7625 12.452 42.2505 12.08 40.5465 12.08C38.8425 12.08 37.3185 12.452 35.9745 13.196C34.6305 13.916 33.5625 14.924 32.7705 16.22C32.0025 17.516 31.6185 19.016 31.6185 20.72ZM35.6145 20.72C35.6145 19.688 35.8305 18.776 36.2625 17.984C36.6945 17.192 37.2825 16.58 38.0265 16.148C38.7705 15.716 39.6105 15.5 40.5465 15.5C41.4585 15.5 42.2865 15.716 43.0305 16.148C43.7985 16.58 44.3985 17.192 44.8305 17.984C45.2625 18.776 45.4785 19.688 45.4785 20.72C45.4785 21.752 45.2625 22.664 44.8305 23.456C44.3985 24.224 43.7985 24.836 43.0305 25.292C42.2865 25.724 41.4585 25.94 40.5465 25.94C39.6105 25.94 38.7705 25.724 38.0265 25.292C37.2825 24.836 36.6945 24.224 36.2625 23.456C35.8305 22.664 35.6145 21.752 35.6145 20.72ZM55.7557 20.72C55.7557 19.688 55.9837 18.776 56.4397 17.984C56.8957 17.192 57.5077 16.568 58.2757 16.112C59.0677 15.656 59.9437 15.428 60.9037 15.428C61.6717 15.428 62.4157 15.548 63.1357 15.788C63.8557 16.028 64.4917 16.364 65.0437 16.796C65.6197 17.204 66.0397 17.684 66.3037 18.236V13.952C65.7277 13.376 64.9477 12.92 63.9637 12.584C62.9797 12.248 61.8997 12.08 60.7237 12.08C59.0197 12.08 57.4837 12.452 56.1157 13.196C54.7717 13.916 53.7037 14.924 52.9117 16.22C52.1437 17.516 51.7597 19.016 51.7597 20.72C51.7597 22.4 52.1437 23.9 52.9117 25.22C53.7037 26.516 54.7717 27.536 56.1157 28.28C57.4837 29 59.0197 29.36 60.7237 29.36C61.8997 29.36 62.9797 29.192 63.9637 28.856C64.9477 28.52 65.7277 28.064 66.3037 27.488V23.204C66.0397 23.732 65.6317 24.212 65.0797 24.644C64.5277 25.076 63.8917 25.412 63.1717 25.652C62.4517 25.892 61.6957 26.012 60.9037 26.012C59.9437 26.012 59.0677 25.784 58.2757 25.328C57.5077 24.872 56.8957 24.26 56.4397 23.492C55.9837 22.7 55.7557 21.776 55.7557 20.72ZM70.4572 0.919999V29H74.2732V0.919999H70.4572ZM80.3572 12.44L73.1932 19.28L81.1132 29H85.8292L77.9812 19.28L85.1092 12.44H80.3572ZM110.606 5.852C110.606 6.5 110.846 7.064 111.326 7.544C111.83 8 112.406 8.228 113.054 8.228C113.75 8.228 114.326 8 114.782 7.544C115.262 7.064 115.502 6.5 115.502 5.852C115.502 5.18 115.262 4.616 114.782 4.16C114.326 3.704 113.75 3.476 113.054 3.476C112.406 3.476 111.83 3.704 111.326 4.16C110.846 4.616 110.606 5.18 110.606 5.852ZM111.146 12.44V29H114.962V12.44H111.146ZM121.068 23.564L118.8 25.832C119.28 26.456 119.868 27.056 120.564 27.632C121.284 28.184 122.112 28.64 123.048 29C124.008 29.336 125.052 29.504 126.18 29.504C128.004 29.504 129.444 29.036 130.5 28.1C131.58 27.14 132.12 25.88 132.12 24.32C132.12 23.312 131.88 22.496 131.4 21.872C130.944 21.248 130.332 20.72 129.564 20.288C128.796 19.856 127.956 19.46 127.044 19.1C126.372 18.836 125.76 18.584 125.208 18.344C124.68 18.104 124.248 17.84 123.912 17.552C123.6 17.24 123.444 16.892 123.444 16.508C123.444 16.052 123.624 15.704 123.984 15.464C124.344 15.224 124.8 15.104 125.352 15.104C126.168 15.104 126.96 15.308 127.728 15.716C128.496 16.124 129.156 16.652 129.708 17.3L131.868 14.996C131.412 14.444 130.86 13.952 130.212 13.52C129.564 13.088 128.832 12.74 128.016 12.476C127.224 12.212 126.372 12.08 125.46 12.08C124.452 12.08 123.504 12.248 122.616 12.584C121.752 12.896 121.056 13.388 120.528 14.06C120.024 14.732 119.772 15.572 119.772 16.58C119.772 17.564 120 18.38 120.456 19.028C120.936 19.676 121.536 20.204 122.256 20.612C123 20.996 123.744 21.332 124.488 21.62C125.232 21.884 125.88 22.148 126.432 22.412C126.984 22.652 127.416 22.952 127.728 23.312C128.04 23.648 128.196 24.056 128.196 24.536C128.196 25.088 127.992 25.52 127.584 25.832C127.2 26.144 126.66 26.3 125.964 26.3C125.412 26.3 124.86 26.204 124.308 26.012C123.756 25.796 123.204 25.484 122.652 25.076C122.124 24.644 121.596 24.14 121.068 23.564ZM135.426 0.919999V29H139.242V0.919999H135.426ZM145.326 12.44L138.162 19.28L146.082 29H150.798L142.95 19.28L150.078 12.44H145.326Z" fill="white"/>
<path d="M94.4014 17.264L101.961 29H108.045L99.8374 17.264H94.4014ZM88.6774 3.8V29H93.8254V3.8H88.6774ZM91.8094 8.192H96.8134C97.7254 8.192 98.5054 8.348 99.1534 8.66C99.8254 8.948 100.341 9.38 100.701 9.956C101.061 10.508 101.241 11.18 101.241 11.972C101.241 12.764 101.061 13.448 100.701 14.024C100.341 14.576 99.8254 15.008 99.1534 15.32C98.5054 15.608 97.7254 15.752 96.8134 15.752H91.8094V19.856H97.1374C99.1294 19.856 100.821 19.52 102.213 18.848C103.605 18.176 104.673 17.24 105.417 16.04C106.161 14.816 106.533 13.412 106.533 11.828C106.533 10.22 106.161 8.816 105.417 7.616C104.673 6.416 103.605 5.48 102.213 4.808C100.821 4.136 99.1294 3.8 97.1374 3.8H91.8094V8.192Z" fill="#6DF0F0"/>
</svg>
